# xmcd CD database file
#
# Track frame offsets:
#	150
#	24699
#	43173
#	67231
#
# Disc length: 1145 seconds
#
# Revision: 1
# Processed by: cddbd v1.5.2PL0 Copyright (c) Steve Scherf et al.
# Submitted via: CDex 2.05
#
DISCID=38047704
DTITLE=Gyze - The Rising Dragon
DYEAR=2018
DGENRE=Death Metal
TTITLE0=Japanese Elegy
TTITLE1=The Rising Dragon
TTITLE2=Dragon Calling
TTITLE3=The Rising Dragon (Instrumental)
EXTD=YEAR: 2018
EXTT0=
EXTT1=
EXTT2=
EXTT3=
PLAYORDER=
